<svg xmlns="http://www.w3.org/2000/svg" xmlns:xlink="http://www.w3.org/1999/xlink" width="2000" zoomAndPan="magnify" viewBox="0 0 1500 1499.999933" height="2000" preserveAspectRatio="xMidYMid meet" version="1.0"><defs><g/><clipPath id="f959d88f32"><rect x="0" width="407" y="0" height="200"/></clipPath><clipPath id="d73f854695"><path d="M 714.339844 629.035156 L 826.839844 629.035156 L 826.839844 770.785156 L 714.339844 770.785156 Z M 714.339844 629.035156 " clip-rule="nonzero"/></clipPath><clipPath id="b3e5739d1c"><path d="M 0.644531 0.0390625 L 112.839844 0.0390625 L 112.839844 141.785156 L 0.644531 141.785156 Z M 0.644531 0.0390625 " clip-rule="nonzero"/></clipPath><clipPath id="221e748ef9"><rect x="0" width="113" y="0" height="142"/></clipPath><clipPath id="8f60e6b7e7"><path d="M 832.734375 626.722656 L 868.816406 626.722656 L 868.816406 662.804688 L 832.734375 662.804688 Z M 832.734375 626.722656 " clip-rule="nonzero"/></clipPath><clipPath id="69615d7800"><path d="M 850.777344 626.722656 C 840.8125 626.722656 832.734375 634.800781 832.734375 644.761719 C 832.734375 654.726562 840.8125 662.804688 850.777344 662.804688 C 860.738281 662.804688 868.816406 654.726562 868.816406 644.761719 C 868.816406 634.800781 860.738281 626.722656 850.777344 626.722656 Z M 850.777344 626.722656 " clip-rule="nonzero"/></clipPath><clipPath id="614d14333c"><path d="M 0.734375 0.722656 L 36.816406 0.722656 L 36.816406 36.804688 L 0.734375 36.804688 Z M 0.734375 0.722656 " clip-rule="nonzero"/></clipPath><clipPath id="bd3431b258"><path d="M 18.777344 0.722656 C 8.8125 0.722656 0.734375 8.800781 0.734375 18.761719 C 0.734375 28.726562 8.8125 36.804688 18.777344 36.804688 C 28.738281 36.804688 36.816406 28.726562 36.816406 18.761719 C 36.816406 8.800781 28.738281 0.722656 18.777344 0.722656 Z M 18.777344 0.722656 " clip-rule="nonzero"/></clipPath><clipPath id="926bdea425"><rect x="0" width="37" y="0" height="37"/></clipPath><clipPath id="0de9e3fe56"><rect x="0" width="75" y="0" height="73"/></clipPath></defs><g transform="matrix(1, 0, 0, 1, 827, 617)"><g clip-path="url(#f959d88f32)"><g fill="#000000" fill-opacity="0.4"><g transform="translate(0.155275, 143.096487)"><g><path d="M 12.265625 -127.390625 C 15.566406 -130.679688 19.503906 -132.328125 24.078125 -132.328125 C 28.648438 -132.328125 32.582031 -130.679688 35.875 -127.390625 C 39.164062 -124.097656 40.8125 -120.164062 40.8125 -115.59375 C 40.8125 -111.019531 39.164062 -107.082031 35.875 -103.78125 C 32.582031 -100.488281 28.648438 -98.84375 24.078125 -98.84375 C 19.503906 -98.84375 15.566406 -100.488281 12.265625 -103.78125 C 8.972656 -107.082031 7.328125 -111.019531 7.328125 -115.59375 C 7.328125 -120.164062 8.972656 -124.097656 12.265625 -127.390625 Z M 9.5625 -81.796875 L 9.5625 0 L 37.78125 0 L 37.78125 -81.796875 Z M 9.5625 -81.796875 "/></g></g></g><g fill="#000000" fill-opacity="0.4"><g transform="translate(41.287551, 143.096487)"><g><path d="M 53.09375 -61.0625 C 47.78125 -61.0625 43.207031 -59.09375 39.375 -55.15625 C 35.550781 -51.226562 33.640625 -46.5 33.640625 -40.96875 C 33.640625 -35.34375 35.550781 -30.5625 39.375 -26.625 C 43.207031 -22.695312 47.78125 -20.734375 53.09375 -20.734375 C 55.644531 -20.734375 58.0625 -21.050781 60.34375 -21.6875 C 62.632812 -22.320312 64.3125 -22.957031 65.375 -23.59375 L 66.796875 -24.546875 L 76.375 -4.9375 C 75.625 -4.40625 74.582031 -3.738281 73.25 -2.9375 C 71.925781 -2.144531 68.898438 -1.0625 64.171875 0.3125 C 59.441406 1.695312 54.367188 2.390625 48.953125 2.390625 C 36.941406 2.390625 26.390625 -1.832031 17.296875 -10.28125 C 8.210938 -18.726562 3.671875 -28.851562 3.671875 -40.65625 C 3.671875 -52.5625 8.210938 -62.789062 17.296875 -71.34375 C 26.390625 -79.90625 36.941406 -84.1875 48.953125 -84.1875 C 54.367188 -84.1875 59.363281 -83.546875 63.9375 -82.265625 C 68.507812 -80.992188 71.75 -79.71875 73.65625 -78.4375 L 76.375 -76.53125 L 66.796875 -57.234375 C 63.296875 -59.785156 58.726562 -61.0625 53.09375 -61.0625 Z M 53.09375 -61.0625 "/></g></g></g><g fill="#000000" fill-opacity="0.4"><g transform="translate(112.55194, 143.096487)"><g><path d="M 17.296875 -9.71875 C 8.210938 -17.800781 3.671875 -28.164062 3.671875 -40.8125 C 3.671875 -53.457031 8.398438 -63.847656 17.859375 -71.984375 C 27.316406 -80.117188 39.007812 -84.1875 52.9375 -84.1875 C 66.644531 -84.1875 78.203125 -80.09375 87.609375 -71.90625 C 97.015625 -63.71875 101.71875 -53.351562 101.71875 -40.8125 C 101.71875 -28.269531 97.117188 -17.929688 87.921875 -9.796875 C 78.734375 -1.671875 67.070312 2.390625 52.9375 2.390625 C 38.269531 2.390625 26.390625 -1.644531 17.296875 -9.71875 Z M 39.140625 -54.6875 C 35.472656 -51.070312 33.640625 -46.445312 33.640625 -40.8125 C 33.640625 -35.175781 35.394531 -30.578125 38.90625 -27.015625 C 42.414062 -23.460938 47.039062 -21.6875 52.78125 -21.6875 C 58.300781 -21.6875 62.84375 -23.492188 66.40625 -27.109375 C 69.96875 -30.722656 71.75 -35.289062 71.75 -40.8125 C 71.75 -46.445312 69.914062 -51.070312 66.25 -54.6875 C 62.582031 -58.300781 58.09375 -60.109375 52.78125 -60.109375 C 47.351562 -60.109375 42.804688 -58.300781 39.140625 -54.6875 Z M 39.140625 -54.6875 "/></g></g></g><g fill="#000000" fill-opacity="0.4"><g transform="translate(210.919298, 143.096487)"><g><path d="M 15.140625 -10.125 C 7.492188 -18.46875 3.671875 -28.695312 3.671875 -40.8125 C 3.671875 -52.925781 7.492188 -63.179688 15.140625 -71.578125 C 22.796875 -79.984375 32.523438 -84.1875 44.328125 -84.1875 C 55.171875 -84.1875 64.097656 -80.785156 71.109375 -73.984375 L 71.109375 -137.109375 L 99.328125 -137.109375 L 99.328125 0 L 71.421875 0 L 71.421875 -9.25 L 71.109375 -9.25 C 64.097656 -1.488281 55.171875 2.390625 44.328125 2.390625 C 32.523438 2.390625 22.796875 -1.78125 15.140625 -10.125 Z M 39.140625 -54.6875 C 35.472656 -51.070312 33.640625 -46.445312 33.640625 -40.8125 C 33.640625 -35.175781 35.394531 -30.578125 38.90625 -27.015625 C 42.414062 -23.460938 47.039062 -21.6875 52.78125 -21.6875 C 58.300781 -21.6875 62.84375 -23.492188 66.40625 -27.109375 C 69.96875 -30.722656 71.75 -35.289062 71.75 -40.8125 C 71.75 -46.445312 69.914062 -51.070312 66.25 -54.6875 C 62.582031 -58.300781 58.09375 -60.109375 52.78125 -60.109375 C 47.351562 -60.109375 42.804688 -58.300781 39.140625 -54.6875 Z M 39.140625 -54.6875 "/></g></g></g><g fill="#000000" fill-opacity="0.4"><g transform="translate(312.794087, 143.096487)"><g><path d="M 92.3125 -36.984375 L 33 -36.984375 C 33 -31.242188 34.859375 -26.992188 38.578125 -24.234375 C 42.304688 -21.472656 46.347656 -20.09375 50.703125 -20.09375 C 55.273438 -20.09375 58.890625 -20.703125 61.546875 -21.921875 C 64.203125 -23.140625 67.226562 -25.554688 70.625 -29.171875 L 91.03125 -18.96875 C 82.53125 -4.726562 68.394531 2.390625 48.625 2.390625 C 36.300781 2.390625 25.726562 -1.832031 16.90625 -10.28125 C 8.082031 -18.726562 3.671875 -28.90625 3.671875 -40.8125 C 3.671875 -52.71875 8.082031 -62.921875 16.90625 -71.421875 C 25.726562 -79.929688 36.300781 -84.1875 48.625 -84.1875 C 61.59375 -84.1875 72.140625 -80.4375 80.265625 -72.9375 C 88.398438 -65.445312 92.46875 -54.738281 92.46875 -40.8125 C 92.46875 -38.90625 92.414062 -37.628906 92.3125 -36.984375 Z M 33.796875 -52.609375 L 64.890625 -52.609375 C 64.253906 -56.859375 62.578125 -60.125 59.859375 -62.40625 C 57.148438 -64.695312 53.671875 -65.84375 49.421875 -65.84375 C 44.742188 -65.84375 41.023438 -64.617188 38.265625 -62.171875 C 35.503906 -59.734375 34.015625 -56.546875 33.796875 -52.609375 Z M 33.796875 -52.609375 "/></g></g></g><g fill="#ffffff" fill-opacity="1"><g transform="translate(0.155275, 143.096487)"><g><path d="M 12.265625 -127.390625 C 15.566406 -130.679688 19.503906 -132.328125 24.078125 -132.328125 C 28.648438 -132.328125 32.582031 -130.679688 35.875 -127.390625 C 39.164062 -124.097656 40.8125 -120.164062 40.8125 -115.59375 C 40.8125 -111.019531 39.164062 -107.082031 35.875 -103.78125 C 32.582031 -100.488281 28.648438 -98.84375 24.078125 -98.84375 C 19.503906 -98.84375 15.566406 -100.488281 12.265625 -103.78125 C 8.972656 -107.082031 7.328125 -111.019531 7.328125 -115.59375 C 7.328125 -120.164062 8.972656 -124.097656 12.265625 -127.390625 Z M 9.5625 -81.796875 L 9.5625 0 L 37.78125 0 L 37.78125 -81.796875 Z M 9.5625 -81.796875 "/></g></g></g><g fill="#ffffff" fill-opacity="1"><g transform="translate(41.287551, 143.096487)"><g><path d="M 53.09375 -61.0625 C 47.78125 -61.0625 43.207031 -59.09375 39.375 -55.15625 C 35.550781 -51.226562 33.640625 -46.5 33.640625 -40.96875 C 33.640625 -35.34375 35.550781 -30.5625 39.375 -26.625 C 43.207031 -22.695312 47.78125 -20.734375 53.09375 -20.734375 C 55.644531 -20.734375 58.0625 -21.050781 60.34375 -21.6875 C 62.632812 -22.320312 64.3125 -22.957031 65.375 -23.59375 L 66.796875 -24.546875 L 76.375 -4.9375 C 75.625 -4.40625 74.582031 -3.738281 73.25 -2.9375 C 71.925781 -2.144531 68.898438 -1.0625 64.171875 0.3125 C 59.441406 1.695312 54.367188 2.390625 48.953125 2.390625 C 36.941406 2.390625 26.390625 -1.832031 17.296875 -10.28125 C 8.210938 -18.726562 3.671875 -28.851562 3.671875 -40.65625 C 3.671875 -52.5625 8.210938 -62.789062 17.296875 -71.34375 C 26.390625 -79.90625 36.941406 -84.1875 48.953125 -84.1875 C 54.367188 -84.1875 59.363281 -83.546875 63.9375 -82.265625 C 68.507812 -80.992188 71.75 -79.71875 73.65625 -78.4375 L 76.375 -76.53125 L 66.796875 -57.234375 C 63.296875 -59.785156 58.726562 -61.0625 53.09375 -61.0625 Z M 53.09375 -61.0625 "/></g></g></g><g fill="#ffffff" fill-opacity="1"><g transform="translate(112.55194, 143.096487)"><g><path d="M 17.296875 -9.71875 C 8.210938 -17.800781 3.671875 -28.164062 3.671875 -40.8125 C 3.671875 -53.457031 8.398438 -63.847656 17.859375 -71.984375 C 27.316406 -80.117188 39.007812 -84.1875 52.9375 -84.1875 C 66.644531 -84.1875 78.203125 -80.09375 87.609375 -71.90625 C 97.015625 -63.71875 101.71875 -53.351562 101.71875 -40.8125 C 101.71875 -28.269531 97.117188 -17.929688 87.921875 -9.796875 C 78.734375 -1.671875 67.070312 2.390625 52.9375 2.390625 C 38.269531 2.390625 26.390625 -1.644531 17.296875 -9.71875 Z M 39.140625 -54.6875 C 35.472656 -51.070312 33.640625 -46.445312 33.640625 -40.8125 C 33.640625 -35.175781 35.394531 -30.578125 38.90625 -27.015625 C 42.414062 -23.460938 47.039062 -21.6875 52.78125 -21.6875 C 58.300781 -21.6875 62.84375 -23.492188 66.40625 -27.109375 C 69.96875 -30.722656 71.75 -35.289062 71.75 -40.8125 C 71.75 -46.445312 69.914062 -51.070312 66.25 -54.6875 C 62.582031 -58.300781 58.09375 -60.109375 52.78125 -60.109375 C 47.351562 -60.109375 42.804688 -58.300781 39.140625 -54.6875 Z M 39.140625 -54.6875 "/></g></g></g><g fill="#ffffff" fill-opacity="1"><g transform="translate(210.919298, 143.096487)"><g><path d="M 15.140625 -10.125 C 7.492188 -18.46875 3.671875 -28.695312 3.671875 -40.8125 C 3.671875 -52.925781 7.492188 -63.179688 15.140625 -71.578125 C 22.796875 -79.984375 32.523438 -84.1875 44.328125 -84.1875 C 55.171875 -84.1875 64.097656 -80.785156 71.109375 -73.984375 L 71.109375 -137.109375 L 99.328125 -137.109375 L 99.328125 0 L 71.421875 0 L 71.421875 -9.25 L 71.109375 -9.25 C 64.097656 -1.488281 55.171875 2.390625 44.328125 2.390625 C 32.523438 2.390625 22.796875 -1.78125 15.140625 -10.125 Z M 39.140625 -54.6875 C 35.472656 -51.070312 33.640625 -46.445312 33.640625 -40.8125 C 33.640625 -35.175781 35.394531 -30.578125 38.90625 -27.015625 C 42.414062 -23.460938 47.039062 -21.6875 52.78125 -21.6875 C 58.300781 -21.6875 62.84375 -23.492188 66.40625 -27.109375 C 69.96875 -30.722656 71.75 -35.289062 71.75 -40.8125 C 71.75 -46.445312 69.914062 -51.070312 66.25 -54.6875 C 62.582031 -58.300781 58.09375 -60.109375 52.78125 -60.109375 C 47.351562 -60.109375 42.804688 -58.300781 39.140625 -54.6875 Z M 39.140625 -54.6875 "/></g></g></g><g fill="#ffffff" fill-opacity="1"><g transform="translate(312.794087, 143.096487)"><g><path d="M 92.3125 -36.984375 L 33 -36.984375 C 33 -31.242188 34.859375 -26.992188 38.578125 -24.234375 C 42.304688 -21.472656 46.347656 -20.09375 50.703125 -20.09375 C 55.273438 -20.09375 58.890625 -20.703125 61.546875 -21.921875 C 64.203125 -23.140625 67.226562 -25.554688 70.625 -29.171875 L 91.03125 -18.96875 C 82.53125 -4.726562 68.394531 2.390625 48.625 2.390625 C 36.300781 2.390625 25.726562 -1.832031 16.90625 -10.28125 C 8.082031 -18.726562 3.671875 -28.90625 3.671875 -40.8125 C 3.671875 -52.71875 8.082031 -62.921875 16.90625 -71.421875 C 25.726562 -79.929688 36.300781 -84.1875 48.625 -84.1875 C 61.59375 -84.1875 72.140625 -80.4375 80.265625 -72.9375 C 88.398438 -65.445312 92.46875 -54.738281 92.46875 -40.8125 C 92.46875 -38.90625 92.414062 -37.628906 92.3125 -36.984375 Z M 33.796875 -52.609375 L 64.890625 -52.609375 C 64.253906 -56.859375 62.578125 -60.125 59.859375 -62.40625 C 57.148438 -64.695312 53.671875 -65.84375 49.421875 -65.84375 C 44.742188 -65.84375 41.023438 -64.617188 38.265625 -62.171875 C 35.503906 -59.734375 34.015625 -56.546875 33.796875 -52.609375 Z M 33.796875 -52.609375 "/></g></g></g></g></g><g clip-path="url(#d73f854695)"><g transform="matrix(1, 0, 0, 1, 714, 629)"><g clip-path="url(#221e748ef9)"><g clip-path="url(#b3e5739d1c)"><path fill="#f6b900" d="M 73.609375 149.339844 C 72.320312 157.476562 65.261719 163.699219 56.742188 163.699219 C 48.222656 163.699219 41.164062 157.476562 39.878906 149.339844 C 39.773438 148.644531 39.949219 147.980469 40.398438 147.425781 C 40.851562 146.871094 41.476562 146.589844 42.171875 146.589844 L 71.277344 146.589844 C 71.972656 146.589844 72.601562 146.871094 73.050781 147.425781 C 73.539062 147.980469 73.714844 148.609375 73.609375 149.339844 Z M 38.175781 120.371094 C 32.785156 120.371094 28.402344 124.753906 28.402344 130.144531 C 28.402344 135.53125 32.785156 139.914062 38.175781 139.914062 L 75.3125 139.914062 C 80.703125 139.914062 85.085938 135.53125 85.085938 130.144531 C 85.085938 126.910156 83.484375 124.023438 81.050781 122.25 L 42.554688 92.273438 C 39.671875 90.015625 36.574219 87.511719 33.585938 85.285156 C 29.410156 81.914062 25.96875 77.636719 23.570312 72.800781 C 21.207031 67.96875 19.847656 62.441406 19.847656 56.5625 C 19.847656 46.375 23.988281 37.160156 30.664062 30.484375 C 37.339844 23.804688 46.554688 19.667969 56.742188 19.667969 C 66.933594 19.667969 76.148438 23.804688 82.824219 30.484375 C 89.5 37.160156 93.636719 46.375 93.636719 56.5625 C 93.636719 63.621094 91.691406 70.195312 88.316406 75.722656 C 84.804688 81.496094 79.730469 86.257812 73.679688 89.355469 C 68.914062 91.824219 67.035156 97.699219 69.472656 102.464844 C 71.941406 107.226562 77.816406 109.105469 82.582031 106.671875 C 91.796875 101.90625 99.550781 94.675781 104.941406 85.84375 C 110.121094 77.289062 113.144531 67.273438 113.144531 56.5625 C 113.144531 40.984375 106.816406 26.902344 96.628906 16.679688 C 86.40625 6.488281 72.320312 0.160156 56.742188 0.160156 C 41.164062 0.160156 27.082031 6.488281 16.859375 16.679688 C 6.671875 26.867188 0.339844 40.984375 0.339844 56.5625 C 0.339844 65.394531 2.429688 73.808594 6.113281 81.355469 C 9.800781 88.832031 15.050781 95.371094 21.449219 100.550781 C 24.613281 103.195312 28.578125 106.148438 31.847656 108.6875 L 46.867188 120.371094 Z M 38.175781 120.371094 " fill-opacity="1" fill-rule="evenodd"/></g></g></g></g><g clip-path="url(#8f60e6b7e7)"><g clip-path="url(#69615d7800)"><g transform="matrix(1, 0, 0, 1, 832, 626)"><g clip-path="url(#926bdea425)"><g clip-path="url(#614d14333c)"><g clip-path="url(#bd3431b258)"><path fill="#f6b900" d="M 0.734375 0.722656 L 36.816406 0.722656 L 36.816406 36.804688 L 0.734375 36.804688 Z M 0.734375 0.722656 " fill-opacity="1" fill-rule="nonzero"/></g></g></g></g></g></g><g transform="matrix(1, 0, 0, 1, 638, 626)"><g clip-path="url(#0de9e3fe56)"><g fill="#000000" fill-opacity="0.4"><g transform="translate(0.232869, 51.849301)"><g><path d="M 33.359375 -25.46875 C 36.078125 -22.476562 37.4375 -18.828125 37.4375 -14.515625 C 37.4375 -10.210938 36.078125 -6.578125 33.359375 -3.609375 C 30.640625 -0.640625 27.179688 0.84375 22.984375 0.84375 C 19.117188 0.84375 15.941406 -0.535156 13.453125 -3.296875 L 13.328125 -3.296875 L 13.328125 0 L 3.40625 0 L 3.40625 -48.796875 L 13.453125 -48.796875 L 13.453125 -26.328125 C 15.941406 -28.742188 19.117188 -29.953125 22.984375 -29.953125 C 27.179688 -29.953125 30.640625 -28.457031 33.359375 -25.46875 Z M 24.90625 -9.609375 C 26.15625 -10.878906 26.78125 -12.515625 26.78125 -14.515625 C 26.78125 -16.523438 26.125 -18.171875 24.8125 -19.453125 C 23.507812 -20.742188 21.894531 -21.390625 19.96875 -21.390625 C 18.082031 -21.390625 16.484375 -20.742188 15.171875 -19.453125 C 13.867188 -18.171875 13.21875 -16.53125 13.21875 -14.53125 C 13.21875 -12.5625 13.847656 -10.929688 15.109375 -9.640625 C 16.378906 -8.359375 18 -7.71875 19.96875 -7.71875 C 22.007812 -7.71875 23.65625 -8.347656 24.90625 -9.609375 Z M 24.90625 -9.609375 "/></g></g></g><g fill="#000000" fill-opacity="0.4"><g transform="translate(36.48836, 51.849301)"><g><path d="M 25.46875 -29.109375 L 37.046875 -29.109375 L 14.1875 14.75 L 2.609375 14.75 L 12.65625 -4.53125 L -1.140625 -29.109375 L 10.4375 -29.109375 L 18.546875 -14.1875 Z M 25.46875 -29.109375 "/></g></g></g><g fill="#ffffff" fill-opacity="1"><g transform="translate(0.232869, 51.849301)"><g><path d="M 33.359375 -25.46875 C 36.078125 -22.476562 37.4375 -18.828125 37.4375 -14.515625 C 37.4375 -10.210938 36.078125 -6.578125 33.359375 -3.609375 C 30.640625 -0.640625 27.179688 0.84375 22.984375 0.84375 C 19.117188 0.84375 15.941406 -0.535156 13.453125 -3.296875 L 13.328125 -3.296875 L 13.328125 0 L 3.40625 0 L 3.40625 -48.796875 L 13.453125 -48.796875 L 13.453125 -26.328125 C 15.941406 -28.742188 19.117188 -29.953125 22.984375 -29.953125 C 27.179688 -29.953125 30.640625 -28.457031 33.359375 -25.46875 Z M 24.90625 -9.609375 C 26.15625 -10.878906 26.78125 -12.515625 26.78125 -14.515625 C 26.78125 -16.523438 26.125 -18.171875 24.8125 -19.453125 C 23.507812 -20.742188 21.894531 -21.390625 19.96875 -21.390625 C 18.082031 -21.390625 16.484375 -20.742188 15.171875 -19.453125 C 13.867188 -18.171875 13.21875 -16.53125 13.21875 -14.53125 C 13.21875 -12.5625 13.847656 -10.929688 15.109375 -9.640625 C 16.378906 -8.359375 18 -7.71875 19.96875 -7.71875 C 22.007812 -7.71875 23.65625 -8.347656 24.90625 -9.609375 Z M 24.90625 -9.609375 "/></g></g></g><g fill="#ffffff" fill-opacity="1"><g transform="translate(36.48836, 51.849301)"><g><path d="M 25.46875 -29.109375 L 37.046875 -29.109375 L 14.1875 14.75 L 2.609375 14.75 L 12.65625 -4.53125 L -1.140625 -29.109375 L 10.4375 -29.109375 L 18.546875 -14.1875 Z M 25.46875 -29.109375 "/></g></g></g></g></g><g fill="#000000" fill-opacity="0.4"><g transform="translate(214.919825, 581.223739)"><g><path d="M 84.859375 -195.84375 C 95.273438 -195.84375 105.457031 -194.328125 115.40625 -191.296875 C 125.351562 -188.265625 132.734375 -185.269531 137.546875 -182.3125 L 144.546875 -177.65625 L 126.828125 -142.6875 C 125.429688 -143.613281 123.488281 -144.816406 121 -146.296875 C 118.507812 -147.773438 113.84375 -149.753906 107 -152.234375 C 100.164062 -154.722656 93.796875 -155.96875 87.890625 -155.96875 C 80.585938 -155.96875 74.953125 -154.410156 70.984375 -151.296875 C 67.023438 -148.191406 65.046875 -144 65.046875 -138.71875 C 65.046875 -136.070312 65.976562 -133.625 67.84375 -131.375 C 69.707031 -129.125 72.890625 -126.710938 77.390625 -124.140625 C 81.898438 -121.578125 85.863281 -119.519531 89.28125 -117.96875 C 92.707031 -116.414062 97.992188 -114.082031 105.140625 -110.96875 C 117.578125 -105.6875 128.1875 -98.5 136.96875 -89.40625 C 145.75 -80.3125 150.140625 -70.015625 150.140625 -58.515625 C 150.140625 -47.484375 148.15625 -37.847656 144.1875 -29.609375 C 140.226562 -21.367188 134.789062 -14.914062 127.875 -10.25 C 120.957031 -5.59375 113.300781 -2.140625 104.90625 0.109375 C 96.519531 2.367188 87.429688 3.5 77.640625 3.5 C 69.242188 3.5 61.003906 2.644531 52.921875 0.9375 C 44.835938 -0.769531 38.078125 -2.90625 32.640625 -5.46875 C 27.203125 -8.039062 22.304688 -10.566406 17.953125 -13.046875 C 13.597656 -15.535156 10.410156 -17.632812 8.390625 -19.34375 L 5.359375 -21.921875 L 27.28125 -58.75 C 29.144531 -57.195312 31.707031 -55.210938 34.96875 -52.796875 C 38.226562 -50.390625 44.015625 -47.164062 52.328125 -43.125 C 60.648438 -39.082031 68 -37.0625 74.375 -37.0625 C 92.863281 -37.0625 102.109375 -43.359375 102.109375 -55.953125 C 102.109375 -58.597656 101.445312 -61.046875 100.125 -63.296875 C 98.8125 -65.546875 96.484375 -67.796875 93.140625 -70.046875 C 89.796875 -72.304688 86.84375 -74.097656 84.28125 -75.421875 C 81.71875 -76.742188 77.519531 -78.765625 71.6875 -81.484375 C 65.863281 -84.203125 61.550781 -86.257812 58.75 -87.65625 C 47.09375 -93.40625 38.078125 -100.59375 31.703125 -109.21875 C 25.328125 -117.851562 22.140625 -127.144531 22.140625 -137.09375 C 22.140625 -154.34375 28.515625 -168.445312 41.265625 -179.40625 C 54.015625 -190.363281 68.546875 -195.84375 84.859375 -195.84375 Z M 84.859375 -195.84375 "/></g></g></g><g fill="#000000" fill-opacity="0.4"><g transform="translate(361.32993, 581.223739)"><g><path d="M 57.8125 -192.34375 L 57.8125 0 L 13.984375 0 L 13.984375 -192.34375 Z M 57.8125 -192.34375 "/></g></g></g><g fill="#000000" fill-opacity="0.4"><g transform="translate(422.880745, 581.223739)"><g><path d="M 13.984375 -192.34375 L 84.15625 -192.34375 C 103.75 -192.34375 119.601562 -187.289062 131.71875 -177.1875 C 143.84375 -167.082031 149.90625 -152.394531 149.90625 -133.125 C 149.90625 -113.851562 143.765625 -98.738281 131.484375 -87.78125 C 119.210938 -76.820312 103.4375 -71.34375 84.15625 -71.34375 L 57.8125 -71.34375 L 57.8125 0 L 13.984375 0 Z M 57.8125 -106.3125 L 70.171875 -106.3125 C 79.960938 -106.3125 88.003906 -108.289062 94.296875 -112.25 C 100.597656 -116.21875 103.75 -122.707031 103.75 -131.71875 C 103.75 -140.894531 100.597656 -147.460938 94.296875 -151.421875 C 88.003906 -155.390625 79.960938 -157.375 70.171875 -157.375 L 57.8125 -157.375 Z M 57.8125 -106.3125 "/></g></g></g><g fill="#000000" fill-opacity="0.4"><g transform="translate(567.89201, 581.223739)"><g><path d="M 124.03125 -192.34375 L 124.03125 -153.875 L 57.8125 -153.875 L 57.8125 -115.640625 L 121.234375 -115.640625 L 121.234375 -77.171875 L 57.8125 -77.171875 L 57.8125 -38.46875 L 124.03125 -38.46875 L 124.03125 0 L 13.984375 0 L 13.984375 -192.34375 Z M 124.03125 -192.34375 "/></g></g></g><g fill="#000000" fill-opacity="0.4"><g transform="translate(692.853459, 581.223739)"><g><path d="M 13.984375 -192.34375 L 82.765625 -192.34375 C 101.265625 -192.34375 116.34375 -187.40625 128 -177.53125 C 139.65625 -167.664062 145.484375 -153.5625 145.484375 -135.21875 C 145.484375 -121.070312 141.945312 -109.21875 134.875 -99.65625 C 127.800781 -90.101562 118.203125 -83.382812 106.078125 -79.5 L 172.296875 0 L 116.578125 0 L 57.8125 -76 L 57.8125 0 L 13.984375 0 Z M 57.8125 -107.015625 L 62.953125 -107.015625 C 66.992188 -107.015625 70.410156 -107.09375 73.203125 -107.25 C 76.003906 -107.40625 79.191406 -107.945312 82.765625 -108.875 C 86.335938 -109.8125 89.210938 -111.132812 91.390625 -112.84375 C 93.566406 -114.550781 95.429688 -117.035156 96.984375 -120.296875 C 98.535156 -123.566406 99.3125 -127.53125 99.3125 -132.1875 C 99.3125 -136.851562 98.535156 -140.816406 96.984375 -144.078125 C 95.429688 -147.347656 93.566406 -149.835938 91.390625 -151.546875 C 89.210938 -153.253906 86.335938 -154.570312 82.765625 -155.5 C 79.191406 -156.4375 76.003906 -156.984375 73.203125 -157.140625 C 70.410156 -157.296875 66.992188 -157.375 62.953125 -157.375 L 57.8125 -157.375 Z M 57.8125 -107.015625 "/></g></g></g><g fill="#000000" fill-opacity="0.4"><g transform="translate(849.521576, 581.223739)"><g><path d="M 161.796875 -192.34375 L 161.796875 -68.3125 C 161.796875 -44.6875 155.421875 -26.8125 142.671875 -14.6875 C 129.929688 -2.5625 111.28125 3.5 86.71875 3.5 C 62.164062 3.5 43.515625 -2.5625 30.765625 -14.6875 C 18.023438 -26.8125 11.65625 -44.6875 11.65625 -68.3125 L 11.65625 -192.34375 L 55.484375 -192.34375 L 55.484375 -81.140625 C 55.484375 -65.585938 57.929688 -54.78125 62.828125 -48.71875 C 67.722656 -42.664062 75.6875 -39.640625 86.71875 -39.640625 C 97.757812 -39.640625 105.726562 -42.664062 110.625 -48.71875 C 115.519531 -54.78125 117.96875 -65.585938 117.96875 -81.140625 L 117.96875 -192.34375 Z M 161.796875 -192.34375 "/></g></g></g><g fill="#000000" fill-opacity="0.4"><g transform="translate(1012.717512, 581.223739)"><g><path d="M 172.984375 0 L 163.890625 -114 L 162.734375 -114 L 123.328125 -1.171875 L 97.21875 -1.171875 L 57.8125 -114 L 56.65625 -114 L 47.5625 0 L 3.734375 0 L 20.984375 -192.34375 L 67.609375 -192.34375 L 110.28125 -81.359375 L 152.9375 -192.34375 L 199.5625 -192.34375 L 216.828125 0 Z M 172.984375 0 "/></g></g></g><g fill="#f6b900" fill-opacity="1"><g transform="translate(214.919825, 581.223739)"><g><path d="M 84.859375 -195.84375 C 95.273438 -195.84375 105.457031 -194.328125 115.40625 -191.296875 C 125.351562 -188.265625 132.734375 -185.269531 137.546875 -182.3125 L 144.546875 -177.65625 L 126.828125 -142.6875 C 125.429688 -143.613281 123.488281 -144.816406 121 -146.296875 C 118.507812 -147.773438 113.84375 -149.753906 107 -152.234375 C 100.164062 -154.722656 93.796875 -155.96875 87.890625 -155.96875 C 80.585938 -155.96875 74.953125 -154.410156 70.984375 -151.296875 C 67.023438 -148.191406 65.046875 -144 65.046875 -138.71875 C 65.046875 -136.070312 65.976562 -133.625 67.84375 -131.375 C 69.707031 -129.125 72.890625 -126.710938 77.390625 -124.140625 C 81.898438 -121.578125 85.863281 -119.519531 89.28125 -117.96875 C 92.707031 -116.414062 97.992188 -114.082031 105.140625 -110.96875 C 117.578125 -105.6875 128.1875 -98.5 136.96875 -89.40625 C 145.75 -80.3125 150.140625 -70.015625 150.140625 -58.515625 C 150.140625 -47.484375 148.15625 -37.847656 144.1875 -29.609375 C 140.226562 -21.367188 134.789062 -14.914062 127.875 -10.25 C 120.957031 -5.59375 113.300781 -2.140625 104.90625 0.109375 C 96.519531 2.367188 87.429688 3.5 77.640625 3.5 C 69.242188 3.5 61.003906 2.644531 52.921875 0.9375 C 44.835938 -0.769531 38.078125 -2.90625 32.640625 -5.46875 C 27.203125 -8.039062 22.304688 -10.566406 17.953125 -13.046875 C 13.597656 -15.535156 10.410156 -17.632812 8.390625 -19.34375 L 5.359375 -21.921875 L 27.28125 -58.75 C 29.144531 -57.195312 31.707031 -55.210938 34.96875 -52.796875 C 38.226562 -50.390625 44.015625 -47.164062 52.328125 -43.125 C 60.648438 -39.082031 68 -37.0625 74.375 -37.0625 C 92.863281 -37.0625 102.109375 -43.359375 102.109375 -55.953125 C 102.109375 -58.597656 101.445312 -61.046875 100.125 -63.296875 C 98.8125 -65.546875 96.484375 -67.796875 93.140625 -70.046875 C 89.796875 -72.304688 86.84375 -74.097656 84.28125 -75.421875 C 81.71875 -76.742188 77.519531 -78.765625 71.6875 -81.484375 C 65.863281 -84.203125 61.550781 -86.257812 58.75 -87.65625 C 47.09375 -93.40625 38.078125 -100.59375 31.703125 -109.21875 C 25.328125 -117.851562 22.140625 -127.144531 22.140625 -137.09375 C 22.140625 -154.34375 28.515625 -168.445312 41.265625 -179.40625 C 54.015625 -190.363281 68.546875 -195.84375 84.859375 -195.84375 Z M 84.859375 -195.84375 "/></g></g></g><g fill="#f6b900" fill-opacity="1"><g transform="translate(361.32993, 581.223739)"><g><path d="M 57.8125 -192.34375 L 57.8125 0 L 13.984375 0 L 13.984375 -192.34375 Z M 57.8125 -192.34375 "/></g></g></g><g fill="#ffffff" fill-opacity="1"><g transform="translate(422.880745, 581.223739)"><g><path d="M 13.984375 -192.34375 L 84.15625 -192.34375 C 103.75 -192.34375 119.601562 -187.289062 131.71875 -177.1875 C 143.84375 -167.082031 149.90625 -152.394531 149.90625 -133.125 C 149.90625 -113.851562 143.765625 -98.738281 131.484375 -87.78125 C 119.210938 -76.820312 103.4375 -71.34375 84.15625 -71.34375 L 57.8125 -71.34375 L 57.8125 0 L 13.984375 0 Z M 57.8125 -106.3125 L 70.171875 -106.3125 C 79.960938 -106.3125 88.003906 -108.289062 94.296875 -112.25 C 100.597656 -116.21875 103.75 -122.707031 103.75 -131.71875 C 103.75 -140.894531 100.597656 -147.460938 94.296875 -151.421875 C 88.003906 -155.390625 79.960938 -157.375 70.171875 -157.375 L 57.8125 -157.375 Z M 57.8125 -106.3125 "/></g></g></g><g fill="#ffffff" fill-opacity="1"><g transform="translate(567.89201, 581.223739)"><g><path d="M 124.03125 -192.34375 L 124.03125 -153.875 L 57.8125 -153.875 L 57.8125 -115.640625 L 121.234375 -115.640625 L 121.234375 -77.171875 L 57.8125 -77.171875 L 57.8125 -38.46875 L 124.03125 -38.46875 L 124.03125 0 L 13.984375 0 L 13.984375 -192.34375 Z M 124.03125 -192.34375 "/></g></g></g><g fill="#ffffff" fill-opacity="1"><g transform="translate(692.853459, 581.223739)"><g><path d="M 13.984375 -192.34375 L 82.765625 -192.34375 C 101.265625 -192.34375 116.34375 -187.40625 128 -177.53125 C 139.65625 -167.664062 145.484375 -153.5625 145.484375 -135.21875 C 145.484375 -121.070312 141.945312 -109.21875 134.875 -99.65625 C 127.800781 -90.101562 118.203125 -83.382812 106.078125 -79.5 L 172.296875 0 L 116.578125 0 L 57.8125 -76 L 57.8125 0 L 13.984375 0 Z M 57.8125 -107.015625 L 62.953125 -107.015625 C 66.992188 -107.015625 70.410156 -107.09375 73.203125 -107.25 C 76.003906 -107.40625 79.191406 -107.945312 82.765625 -108.875 C 86.335938 -109.8125 89.210938 -111.132812 91.390625 -112.84375 C 93.566406 -114.550781 95.429688 -117.035156 96.984375 -120.296875 C 98.535156 -123.566406 99.3125 -127.53125 99.3125 -132.1875 C 99.3125 -136.851562 98.535156 -140.816406 96.984375 -144.078125 C 95.429688 -147.347656 93.566406 -149.835938 91.390625 -151.546875 C 89.210938 -153.253906 86.335938 -154.570312 82.765625 -155.5 C 79.191406 -156.4375 76.003906 -156.984375 73.203125 -157.140625 C 70.410156 -157.296875 66.992188 -157.375 62.953125 -157.375 L 57.8125 -157.375 Z M 57.8125 -107.015625 "/></g></g></g><g fill="#ffffff" fill-opacity="1"><g transform="translate(849.521576, 581.223739)"><g><path d="M 161.796875 -192.34375 L 161.796875 -68.3125 C 161.796875 -44.6875 155.421875 -26.8125 142.671875 -14.6875 C 129.929688 -2.5625 111.28125 3.5 86.71875 3.5 C 62.164062 3.5 43.515625 -2.5625 30.765625 -14.6875 C 18.023438 -26.8125 11.65625 -44.6875 11.65625 -68.3125 L 11.65625 -192.34375 L 55.484375 -192.34375 L 55.484375 -81.140625 C 55.484375 -65.585938 57.929688 -54.78125 62.828125 -48.71875 C 67.722656 -42.664062 75.6875 -39.640625 86.71875 -39.640625 C 97.757812 -39.640625 105.726562 -42.664062 110.625 -48.71875 C 115.519531 -54.78125 117.96875 -65.585938 117.96875 -81.140625 L 117.96875 -192.34375 Z M 161.796875 -192.34375 "/></g></g></g><g fill="#ffffff" fill-opacity="1"><g transform="translate(1012.717512, 581.223739)"><g><path d="M 172.984375 0 L 163.890625 -114 L 162.734375 -114 L 123.328125 -1.171875 L 97.21875 -1.171875 L 57.8125 -114 L 56.65625 -114 L 47.5625 0 L 3.734375 0 L 20.984375 -192.34375 L 67.609375 -192.34375 L 110.28125 -81.359375 L 152.9375 -192.34375 L 199.5625 -192.34375 L 216.828125 0 Z M 172.984375 0 "/></g></g></g></svg>